<svg width="48" height="48" viewBox="0 0 48 48" fill="none" xmlns="http://www.w3.org/2000/svg">
<rect width="48" height="48" rx="24" fill="#FCFCFC"/>
<path d="M19.3807 22.843L21 17.3103L25.5604 32.8916C25.9813 34.3298 28.0187 34.3298 28.4396 32.8916L30.5388 25.7194C30.6635 25.2932 31.0544 25.0003 31.4985 25.0003H34C34.5523 25.0003 35 24.5526 35 24.0003C35 23.448 34.5523 23.0003 34 23.0003H31.4985C30.1662 23.0003 28.9936 23.8789 28.6193 25.1576L27 30.6903L22.4396 15.1089C22.0187 13.6707 19.9813 13.6707 19.5604 15.1089L17.4612 22.2812C17.3365 22.7074 16.9456 23.0003 16.5015 23.0003H14C13.4477 23.0003 13 23.448 13 24.0003C13 24.5526 13.4477 25.0003 14 25.0003H16.5015C17.8338 25.0003 19.0064 24.1216 19.3807 22.843Z" fill="#1A1D1F"/>
</svg>
